<svg width="621" height="135" viewBox="0 0 621 135" fill="none" xmlns="http://www.w3.org/2000/svg">
<path d="M369.43 103.83C368.53 103.83 367.42 103.62 366.1 103.2C364.78 102.84 363.61 102.09 362.59 100.95C361.57 99.87 361.06 98.25 361.06 96.09C361.06 94.29 361.42 92.04 362.14 89.34C362.92 86.64 363.85 83.64 364.93 80.34C366.07 76.98 367.18 73.41 368.26 69.63C369.34 65.79 370.24 61.89 370.96 57.93C371.74 53.91 372.13 49.89 372.13 45.87C372.13 43.77 371.98 41.85 371.68 40.11C371.44 38.37 370.93 37.02 370.15 36.06C369.43 35.04 368.26 34.53 366.64 34.53C365.02 34.53 363.64 35.01 362.5 35.97C361.42 36.87 360.52 38.07 359.8 39.57C359.08 41.07 358.54 42.63 358.18 44.25C357.88 45.87 357.73 47.37 357.73 48.75C357.73 49.77 357.82 50.73 358 51.63C358.24 52.53 358.54 53.43 358.9 54.33C356.2 54.33 354.25 53.67 353.05 52.35C351.85 50.97 351.25 49.29 351.25 47.31C351.25 45.51 351.7 43.68 352.6 41.82C353.5 39.9 354.73 38.16 356.29 36.6C357.85 34.98 359.65 33.69 361.69 32.73C363.79 31.71 366.01 31.2 368.35 31.2C372.31 31.2 375.28 32.67 377.26 35.61C379.3 38.55 380.32 42.57 380.32 47.67C380.32 51.03 379.93 54.54 379.15 58.2C378.43 61.86 377.5 65.55 376.36 69.27C375.28 72.93 374.17 76.47 373.03 79.89C371.89 83.31 370.93 86.49 370.15 89.43C369.43 92.37 369.07 94.89 369.07 96.99C369.07 97.95 369.22 98.73 369.52 99.33C369.82 99.93 370.42 100.23 371.32 100.23C373.06 100.23 375.01 99.39 377.17 97.71C379.39 96.09 381.67 93.87 384.01 91.05C386.41 88.17 388.72 84.93 390.94 81.33C393.16 77.73 395.17 73.98 396.97 70.08C398.77 66.12 400.18 62.25 401.2 58.47C402.28 54.63 402.82 51.09 402.82 47.85C402.82 44.73 402.28 42.39 401.2 40.83C400.18 39.21 398.86 38.13 397.24 37.59C398.08 35.91 399.04 34.71 400.12 33.99C401.26 33.21 402.28 32.82 403.18 32.82C404.68 32.82 406.09 33.78 407.41 35.7C408.79 37.56 409.48 40.32 409.48 43.98C409.48 47.22 408.85 50.94 407.59 55.14C406.39 59.28 404.71 63.6 402.55 68.1C400.45 72.6 398.02 76.98 395.26 81.24C392.56 85.44 389.71 89.25 386.71 92.67C383.71 96.09 380.74 98.79 377.8 100.77C374.86 102.81 372.07 103.83 369.43 103.83ZM408.842 100.23C406.922 100.23 405.272 99.57 403.892 98.25C402.452 96.99 401.732 95.07 401.732 92.49C401.732 90.33 402.212 88.02 403.172 85.56C404.132 83.1 405.452 80.67 407.132 78.27C408.812 75.87 410.732 73.68 412.892 71.7C415.052 69.72 417.332 68.13 419.732 66.93C422.192 65.73 424.622 65.13 427.022 65.13C429.542 65.13 431.642 65.79 433.322 67.11C435.062 68.37 435.932 70.05 435.932 72.15C435.932 73.77 435.422 74.91 434.402 75.57C433.382 76.23 432.122 76.44 430.622 76.2C430.742 75.72 430.832 75.21 430.892 74.67C431.012 74.07 431.072 73.5 431.072 72.96C431.072 71.7 430.802 70.59 430.262 69.63C429.722 68.67 428.672 68.19 427.112 68.19C425.432 68.19 423.722 68.76 421.982 69.9C420.242 71.04 418.562 72.54 416.942 74.4C415.322 76.26 413.882 78.3 412.622 80.52C411.362 82.74 410.372 84.93 409.652 87.09C408.932 89.25 408.572 91.17 408.572 92.85C408.572 94.89 409.322 95.91 410.822 95.91C412.202 95.91 413.702 95.25 415.322 93.93C417.002 92.61 418.682 90.93 420.362 88.89C422.102 86.85 423.752 84.78 425.312 82.68C426.872 80.52 428.222 78.63 429.362 77.01C429.602 76.71 429.812 76.56 429.992 76.56C430.292 76.62 430.772 76.77 431.432 77.01C432.092 77.19 432.692 77.46 433.232 77.82C433.772 78.18 434.042 78.66 434.042 79.26C434.042 79.86 433.772 80.64 433.232 81.6C432.692 82.5 432.092 83.52 431.432 84.66C430.772 85.8 430.172 86.94 429.632 88.08C429.092 89.22 428.822 90.33 428.822 91.41C428.822 92.19 429.032 92.97 429.452 93.75C429.932 94.47 430.682 94.83 431.702 94.83C433.202 94.83 435.242 93.75 437.822 91.59C440.462 89.37 443.132 85.77 445.832 80.79L447.272 82.23C445.892 85.47 444.182 88.32 442.142 90.78C440.162 93.24 438.062 95.16 435.842 96.54C433.622 97.98 431.402 98.7 429.182 98.7C426.782 98.7 425.012 97.95 423.872 96.45C422.732 95.01 422.102 93.42 421.982 91.68C421.982 91.5 421.982 91.32 421.982 91.14C422.042 90.9 422.072 90.69 422.072 90.51C419.612 93.57 417.362 95.94 415.322 97.62C413.282 99.36 411.122 100.23 408.842 100.23ZM450.458 98.7C447.698 98.7 445.748 97.77 444.608 95.91C443.528 94.05 442.988 91.83 442.988 89.25C442.988 86.31 443.528 82.86 444.608 78.9C445.688 74.94 447.098 70.8 448.838 66.48C450.638 62.1 452.588 57.84 454.688 53.7C456.848 49.5 458.978 45.72 461.078 42.36C463.238 38.94 465.218 36.24 467.018 34.26C468.878 32.22 470.348 31.2 471.428 31.2C472.148 31.2 472.748 31.59 473.228 32.37C473.768 33.15 474.188 34.11 474.488 35.25C474.788 36.33 474.938 37.32 474.938 38.22C474.938 39.84 474.518 41.97 473.678 44.61C472.898 47.19 471.758 50.07 470.258 53.25C468.818 56.37 467.078 59.58 465.038 62.88C463.058 66.12 460.868 69.24 458.468 72.24C456.068 75.18 453.488 77.73 450.728 79.89C450.488 81.39 450.248 82.89 450.008 84.39C449.828 85.89 449.738 87.27 449.738 88.53C449.738 90.75 450.068 92.4 450.728 93.48C451.448 94.5 452.408 95.01 453.608 95.01C455.168 95.01 456.728 94.29 458.288 92.85C459.908 91.41 461.438 89.61 462.878 87.45C464.318 85.23 465.578 82.95 466.658 80.61L468.548 81.69C466.028 86.91 463.238 91.05 460.178 94.11C457.118 97.17 453.878 98.7 450.458 98.7ZM452.078 75.12C454.178 72.96 456.158 70.56 458.018 67.92C459.878 65.28 461.588 62.58 463.148 59.82C464.768 57 466.178 54.3 467.378 51.72C468.578 49.08 469.508 46.74 470.168 44.7C470.828 42.6 471.188 40.95 471.248 39.75C471.248 39.51 471.218 39.36 471.158 39.3C471.098 39.18 471.068 39.12 471.068 39.12C470.588 39.12 469.778 39.84 468.638 41.28C467.558 42.66 466.268 44.55 464.768 46.95C463.328 49.35 461.828 52.11 460.268 55.23C458.708 58.35 457.208 61.62 455.768 65.04C454.328 68.46 453.098 71.82 452.078 75.12ZM491.515 99.42C489.715 99.42 488.155 98.82 486.835 97.62C485.515 96.48 484.465 95.01 483.685 93.21C482.905 91.41 482.305 89.58 481.885 87.72C481.525 85.86 481.345 84.24 481.345 82.86C482.125 82.74 483.145 82.5 484.405 82.14C485.665 81.78 486.955 81.3 488.275 80.7C489.595 80.04 490.705 79.23 491.605 78.27C492.505 77.25 492.955 76.05 492.955 74.67C492.955 73.53 492.565 72.63 491.785 71.97C491.005 71.25 490.015 70.89 488.815 70.89C487.075 70.89 485.425 71.49 483.865 72.69C482.305 73.83 480.865 75.36 479.545 77.28C478.285 79.14 477.145 81.18 476.125 83.4C475.105 85.56 474.205 87.66 473.425 89.7C472.645 91.68 471.985 93.39 471.445 94.83C470.905 96.39 470.305 97.44 469.645 97.98C469.045 98.52 468.235 98.79 467.215 98.79C466.615 98.79 466.045 98.55 465.505 98.07C464.965 97.65 464.545 96.9 464.245 95.82C464.005 94.74 463.885 93.3 463.885 91.5C463.885 88.02 464.395 84.15 465.415 79.89C466.435 75.57 467.785 71.16 469.465 66.66C471.205 62.16 473.095 57.84 475.135 53.7C477.175 49.56 479.215 45.84 481.255 42.54C483.355 39.24 485.305 36.63 487.105 34.71C488.905 32.73 490.375 31.74 491.515 31.74C492.475 31.74 493.255 32.34 493.855 33.54C494.515 34.74 494.845 36.24 494.845 38.04C494.845 40.08 494.395 42.36 493.495 44.88C492.595 47.4 491.305 49.95 489.625 52.53C488.005 55.05 486.055 57.45 483.775 59.73C481.555 62.01 479.065 63.96 476.305 65.58C474.565 69.84 473.215 74.01 472.255 78.09C471.355 82.17 470.815 85.71 470.635 88.71C471.655 86.25 472.855 83.7 474.235 81.06C475.615 78.36 477.145 75.81 478.825 73.41C480.565 71.01 482.425 69.09 484.405 67.65C486.385 66.15 488.485 65.4 490.705 65.4C493.045 65.4 495.055 66.21 496.735 67.83C498.475 69.45 499.345 71.49 499.345 73.95C499.345 75.75 498.835 77.34 497.815 78.72C496.855 80.04 495.655 81.12 494.215 81.96C492.835 82.8 491.425 83.43 489.985 83.85C488.605 84.27 487.435 84.48 486.475 84.48C486.595 85.2 486.805 86.16 487.105 87.36C487.405 88.56 487.825 89.79 488.365 91.05C488.965 92.25 489.685 93.27 490.525 94.11C491.365 94.95 492.355 95.37 493.495 95.37C495.115 95.37 496.705 94.71 498.265 93.39C499.825 92.01 501.355 90.21 502.855 87.99C504.355 85.71 505.705 83.19 506.905 80.43L507.985 81.78C507.025 84.72 505.675 87.57 503.935 90.33C502.195 93.03 500.245 95.22 498.085 96.9C495.925 98.58 493.735 99.42 491.515 99.42ZM478.555 60.36C480.595 58.62 482.545 56.58 484.405 54.24C486.325 51.9 487.885 49.5 489.085 47.04C490.345 44.52 491.005 42.27 491.065 40.29C491.065 40.11 491.035 39.99 490.975 39.93C490.975 39.87 490.975 39.84 490.975 39.84C490.375 39.96 489.385 40.98 488.005 42.9C486.685 44.82 485.185 47.31 483.505 50.37C481.825 53.37 480.175 56.7 478.555 60.36ZM510.688 98.61C508.168 98.61 506.278 97.83 505.018 96.27C503.758 94.77 503.128 92.91 503.128 90.69C503.128 89.31 503.368 87.57 503.848 85.47C504.328 83.37 504.988 81.18 505.828 78.9C506.728 76.56 507.748 74.37 508.888 72.33C510.028 70.29 511.228 68.64 512.488 67.38C513.808 66.06 515.098 65.4 516.358 65.4C517.018 65.4 517.588 65.61 518.068 66.03C518.608 66.45 518.878 67.05 518.878 67.83C518.878 68.61 518.398 69.78 517.438 71.34C516.538 72.9 515.458 74.73 514.198 76.83C512.938 78.87 511.828 81 510.868 83.22C509.968 85.44 509.518 87.57 509.518 89.61C509.518 91.59 509.878 92.91 510.598 93.57C511.318 94.23 512.368 94.56 513.748 94.56C515.788 94.56 517.978 93.54 520.318 91.5C522.718 89.46 525.208 85.89 527.788 80.79L528.958 82.05C526.978 87.33 524.338 91.41 521.038 94.29C517.798 97.17 514.348 98.61 510.688 98.61ZM521.398 57.75C520.318 57.75 519.328 57.48 518.428 56.94C517.588 56.4 517.168 55.59 517.168 54.51C517.168 53.07 517.918 51.87 519.418 50.91C520.978 49.89 522.568 49.38 524.188 49.38C525.208 49.38 526.048 49.62 526.708 50.1C527.368 50.58 527.698 51.39 527.698 52.53C527.698 53.79 527.038 54.99 525.718 56.13C524.398 57.21 522.958 57.75 521.398 57.75ZM540.943 98.34C538.783 98.34 537.043 97.77 535.723 96.63C534.403 95.49 533.743 93.96 533.743 92.04C533.743 90.36 534.163 88.56 535.003 86.64C535.843 84.66 536.683 82.74 537.523 80.88C538.423 78.96 538.873 77.25 538.873 75.75C538.873 74.19 538.363 72.96 537.343 72.06C536.383 71.1 535.333 70.29 534.193 69.63C532.813 73.05 531.313 76.32 529.693 79.44C528.133 82.56 526.843 84.96 525.823 86.64L524.653 84.39C525.493 82.83 526.603 80.61 527.983 77.73C529.363 74.79 530.683 71.49 531.943 67.83C531.343 67.23 531.043 66.45 531.043 65.49C531.043 63.87 531.523 62.4 532.483 61.08C533.503 59.76 534.403 59.1 535.183 59.1C535.843 59.1 536.293 59.49 536.533 60.27C536.833 60.99 536.983 61.5 536.983 61.8C536.983 62.1 536.833 62.67 536.533 63.51C536.233 64.29 536.053 64.83 535.993 65.13C535.993 65.85 536.473 66.54 537.433 67.2C538.453 67.8 539.563 68.55 540.763 69.45C542.023 70.29 543.133 71.34 544.093 72.6C545.053 73.8 545.533 75.36 545.533 77.28C545.533 79.08 545.143 80.88 544.363 82.68C543.583 84.48 542.803 86.19 542.023 87.81C541.243 89.43 540.853 90.81 540.853 91.95C540.853 92.91 541.093 93.54 541.573 93.84C542.053 94.14 542.623 94.29 543.283 94.29C544.723 94.29 546.223 93.84 547.783 92.94C549.343 92.04 550.843 90.9 552.283 89.52C553.783 88.14 555.103 86.7 556.243 85.2C557.383 83.64 558.253 82.23 558.853 80.97L560.653 82.32C559.513 84.9 557.893 87.42 555.793 89.88C553.693 92.34 551.353 94.38 548.773 96C546.193 97.56 543.583 98.34 540.943 98.34ZM562.849 98.61C560.329 98.61 558.439 97.83 557.179 96.27C555.919 94.77 555.289 92.91 555.289 90.69C555.289 89.31 555.529 87.57 556.009 85.47C556.489 83.37 557.149 81.18 557.989 78.9C558.889 76.56 559.909 74.37 561.049 72.33C562.189 70.29 563.389 68.64 564.649 67.38C565.969 66.06 567.259 65.4 568.519 65.4C569.179 65.4 569.749 65.61 570.229 66.03C570.769 66.45 571.039 67.05 571.039 67.83C571.039 68.61 570.559 69.78 569.599 71.34C568.699 72.9 567.619 74.73 566.359 76.83C565.099 78.87 563.989 81 563.029 83.22C562.129 85.44 561.679 87.57 561.679 89.61C561.679 91.59 562.039 92.91 562.759 93.57C563.479 94.23 564.529 94.56 565.909 94.56C567.949 94.56 570.139 93.54 572.479 91.5C574.879 89.46 577.369 85.89 579.949 80.79L581.119 82.05C579.139 87.33 576.499 91.41 573.199 94.29C569.959 97.17 566.509 98.61 562.849 98.61ZM573.559 57.75C572.479 57.75 571.489 57.48 570.589 56.94C569.749 56.4 569.329 55.59 569.329 54.51C569.329 53.07 570.079 51.87 571.579 50.91C573.139 49.89 574.729 49.38 576.349 49.38C577.369 49.38 578.209 49.62 578.869 50.1C579.529 50.58 579.859 51.39 579.859 52.53C579.859 53.79 579.199 54.99 577.879 56.13C576.559 57.21 575.119 57.75 573.559 57.75ZM581.583 100.23C579.663 100.23 578.013 99.57 576.633 98.25C575.193 96.99 574.473 95.07 574.473 92.49C574.473 90.33 574.953 88.02 575.913 85.56C576.873 83.1 578.193 80.67 579.873 78.27C581.553 75.87 583.473 73.68 585.633 71.7C587.793 69.72 590.073 68.13 592.473 66.93C594.933 65.73 597.363 65.13 599.763 65.13C602.283 65.13 604.383 65.79 606.063 67.11C607.803 68.37 608.673 70.05 608.673 72.15C608.673 73.77 608.163 74.91 607.143 75.57C606.123 76.23 604.863 76.44 603.363 76.2C603.483 75.72 603.573 75.21 603.633 74.67C603.753 74.07 603.813 73.5 603.813 72.96C603.813 71.7 603.543 70.59 603.003 69.63C602.463 68.67 601.413 68.19 599.853 68.19C598.173 68.19 596.463 68.76 594.723 69.9C592.983 71.04 591.303 72.54 589.683 74.4C588.063 76.26 586.623 78.3 585.363 80.52C584.103 82.74 583.113 84.93 582.393 87.09C581.673 89.25 581.313 91.17 581.313 92.85C581.313 94.89 582.063 95.91 583.563 95.91C584.943 95.91 586.443 95.25 588.063 93.93C589.743 92.61 591.423 90.93 593.103 88.89C594.843 86.85 596.493 84.78 598.053 82.68C599.613 80.52 600.963 78.63 602.103 77.01C602.343 76.71 602.553 76.56 602.733 76.56C603.033 76.62 603.513 76.77 604.173 77.01C604.833 77.19 605.433 77.46 605.973 77.82C606.513 78.18 606.783 78.66 606.783 79.26C606.783 79.86 606.513 80.64 605.973 81.6C605.433 82.5 604.833 83.52 604.173 84.66C603.513 85.8 602.913 86.94 602.373 88.08C601.833 89.22 601.563 90.33 601.563 91.41C601.563 92.19 601.773 92.97 602.193 93.75C602.673 94.47 603.423 94.83 604.443 94.83C605.943 94.83 607.983 93.75 610.563 91.59C613.203 89.37 615.873 85.77 618.573 80.79L620.013 82.23C618.633 85.47 616.923 88.32 614.883 90.78C612.903 93.24 610.803 95.16 608.583 96.54C606.363 97.98 604.143 98.7 601.923 98.7C599.523 98.7 597.753 97.95 596.613 96.45C595.473 95.01 594.843 93.42 594.723 91.68C594.723 91.5 594.723 91.32 594.723 91.14C594.783 90.9 594.813 90.69 594.813 90.51C592.353 93.57 590.103 95.94 588.063 97.62C586.023 99.36 583.863 100.23 581.583 100.23Z" fill="white"/>
<path d="M276.633 103.83C272.853 103.83 269.553 103.05 266.733 101.49C263.913 99.99 261.723 98.01 260.163 95.55C258.663 93.03 257.913 90.24 257.913 87.18C257.913 84.48 258.483 81.84 259.623 79.26C260.823 76.62 262.443 74.22 264.483 72.06C266.583 69.9 269.043 68.1 271.863 66.66C274.683 65.22 277.743 64.29 281.043 63.87C278.823 61.95 277.143 59.79 276.003 57.39C274.923 54.99 274.383 52.56 274.383 50.1C274.383 46.86 275.193 43.83 276.813 41.01C278.433 38.13 280.683 35.79 283.563 33.99C286.503 32.19 289.863 31.29 293.643 31.29C297.123 31.29 299.763 32.13 301.563 33.81C303.423 35.49 304.353 37.92 304.353 41.1C304.353 43.38 303.963 45.6 303.183 47.76C302.403 49.92 301.443 51.72 300.303 53.16C299.223 54.54 298.143 55.23 297.063 55.23C296.283 55.23 295.533 54.9 294.813 54.24C294.153 53.52 293.583 52.71 293.103 51.81C295.263 49.95 297.063 48.03 298.503 46.05C299.943 44.07 300.663 42 300.663 39.84C300.663 38.1 300.183 36.69 299.223 35.61C298.263 34.47 296.733 33.9 294.633 33.9C291.873 33.9 289.563 34.71 287.703 36.33C285.843 37.95 284.403 40.05 283.383 42.63C282.423 45.21 281.943 48.03 281.943 51.09C281.943 52.47 282.063 54 282.303 55.68C282.603 57.36 283.203 59.04 284.103 60.72C285.003 62.34 286.323 63.87 288.063 65.31C283.863 65.97 280.203 67.47 277.083 69.81C273.963 72.15 271.533 74.88 269.793 78C268.113 81.12 267.273 84.21 267.273 87.27C267.273 89.13 267.633 91.05 268.353 93.03C269.133 94.95 270.393 96.57 272.133 97.89C273.873 99.27 276.153 99.96 278.973 99.96C282.153 99.96 285.213 99.18 288.153 97.62C291.153 96.06 293.853 93.99 296.253 91.41C298.713 88.83 300.723 85.92 302.283 82.68C303.843 79.38 304.833 76.02 305.253 72.6C304.053 72.66 302.913 72.75 301.833 72.87C300.813 72.99 299.643 73.17 298.323 73.41C297.003 73.65 295.263 73.98 293.103 74.4C293.223 71.52 294.243 69.6 296.163 68.64C298.083 67.68 300.363 67.2 303.003 67.2C304.923 67.2 306.663 67.32 308.223 67.56C309.843 67.8 311.433 68.04 312.993 68.28C314.553 68.52 316.173 68.67 317.853 68.73C317.013 70.47 316.233 71.52 315.513 71.88C314.793 72.24 314.103 72.42 313.443 72.42C312.363 72.42 311.433 72.45 310.653 72.51C309.873 72.51 309.093 72.51 308.313 72.51C307.893 76.59 306.753 80.52 304.893 84.3C303.033 88.02 300.633 91.35 297.693 94.29C294.813 97.23 291.573 99.54 287.973 101.22C284.373 102.96 280.593 103.83 276.633 103.83Z" fill="#B88F55"/>
<path d="M4.57914 103.83C2.95914 102.93 1.90914 102 1.42914 101.04C1.00914 100.08 0.799142 99.24 0.799142 98.52C0.799142 96.9 1.39914 94.71 2.59914 91.95C3.79914 89.13 5.38914 85.95 7.36914 82.41C9.40914 78.81 11.6891 75.06 14.2091 71.16C12.2291 71.04 10.3991 70.95 8.71914 70.89C7.09914 70.83 5.23914 70.8 3.13914 70.8H1.06914C1.84914 68.76 3.10914 67.35 4.84914 66.57C6.64914 65.73 8.74914 65.31 11.1491 65.31C12.1691 65.31 13.2191 65.37 14.2991 65.49C15.4391 65.61 16.6091 65.73 17.8091 65.85C20.8091 61.47 23.8091 57.27 26.8091 53.25C29.8091 49.23 32.6291 45.63 35.2691 42.45C37.9691 39.27 40.3091 36.72 42.2891 34.8C44.8091 32.34 46.6991 31.11 47.9591 31.11C48.7391 31.11 49.6091 31.41 50.5691 32.01C51.5291 32.61 52.5491 33.39 53.6291 34.35C53.0291 34.83 52.2491 36.09 51.2891 38.13C50.3891 40.11 49.3991 42.63 48.3191 45.69C47.2991 48.75 46.2491 52.11 45.1691 55.77C44.1491 59.43 43.2191 63.15 42.3791 66.93C41.5391 70.65 40.8491 74.22 40.3091 77.64C39.8291 81.06 39.5891 84.09 39.5891 86.73C39.5891 89.07 39.8291 90.84 40.3091 92.04C40.7891 93.24 41.5991 93.84 42.7391 93.84C44.1791 93.84 45.9191 92.79 47.9591 90.69C49.9991 88.53 52.2491 85.11 54.7091 80.43L56.0591 81.87C54.1991 86.79 51.7991 90.81 48.8591 93.93C45.9791 97.05 42.9191 98.61 39.6791 98.61C36.9791 98.61 35.0291 97.44 33.8291 95.1C32.6891 92.7 32.1191 89.43 32.1191 85.29C32.1191 83.73 32.2091 81.99 32.3891 80.07C32.6291 78.15 32.9591 75.93 33.3791 73.41C30.7391 72.99 28.3691 72.66 26.2691 72.42C24.1691 72.18 22.1891 71.94 20.3291 71.7C17.5091 76.8 14.7491 82.11 12.0491 87.63C9.34914 93.09 6.85914 98.49 4.57914 103.83ZM34.1891 69.45C35.0291 65.73 35.9891 62.01 37.0691 58.29C38.2091 54.51 39.3791 50.91 40.5791 47.49C41.8391 44.01 43.0391 40.92 44.1791 38.22C42.3791 39.54 40.3091 41.61 37.9691 44.43C35.6891 47.19 33.2891 50.49 30.7691 54.33C28.2491 58.17 25.6691 62.34 23.0291 66.84C24.9491 67.26 26.8391 67.71 28.6991 68.19C30.5591 68.61 32.3891 69.03 34.1891 69.45ZM59.1515 98.7C56.3915 98.7 54.4415 97.77 53.3015 95.91C52.2215 94.05 51.6815 91.83 51.6815 89.25C51.6815 86.31 52.2215 82.86 53.3015 78.9C54.3815 74.94 55.7915 70.8 57.5315 66.48C59.3315 62.1 61.2815 57.84 63.3815 53.7C65.5415 49.5 67.6715 45.72 69.7715 42.36C71.9315 38.94 73.9115 36.24 75.7115 34.26C77.5715 32.22 79.0415 31.2 80.1215 31.2C80.8415 31.2 81.4415 31.59 81.9215 32.37C82.4615 33.15 82.8815 34.11 83.1815 35.25C83.4815 36.33 83.6315 37.32 83.6315 38.22C83.6315 39.84 83.2115 41.97 82.3715 44.61C81.5915 47.19 80.4515 50.07 78.9515 53.25C77.5115 56.37 75.7715 59.58 73.7315 62.88C71.7515 66.12 69.5615 69.24 67.1615 72.24C64.7615 75.18 62.1815 77.73 59.4215 79.89C59.1815 81.39 58.9415 82.89 58.7015 84.39C58.5215 85.89 58.4315 87.27 58.4315 88.53C58.4315 90.75 58.7615 92.4 59.4215 93.48C60.1415 94.5 61.1015 95.01 62.3015 95.01C63.8615 95.01 65.4215 94.29 66.9815 92.85C68.6015 91.41 70.1315 89.61 71.5715 87.45C73.0115 85.23 74.2715 82.95 75.3515 80.61L77.2415 81.69C74.7215 86.91 71.9315 91.05 68.8715 94.11C65.8115 97.17 62.5715 98.7 59.1515 98.7ZM60.7715 75.12C62.8715 72.96 64.8515 70.56 66.7115 67.92C68.5715 65.28 70.2815 62.58 71.8415 59.82C73.4615 57 74.8715 54.3 76.0715 51.72C77.2715 49.08 78.2015 46.74 78.8615 44.7C79.5215 42.6 79.8815 40.95 79.9415 39.75C79.9415 39.51 79.9115 39.36 79.8515 39.3C79.7915 39.18 79.7615 39.12 79.7615 39.12C79.2815 39.12 78.4715 39.84 77.3315 41.28C76.2515 42.66 74.9615 44.55 73.4615 46.95C72.0215 49.35 70.5215 52.11 68.9615 55.23C67.4015 58.35 65.9015 61.62 64.4615 65.04C63.0215 68.46 61.7915 71.82 60.7715 75.12ZM79.2384 98.61C76.7184 98.61 74.8284 97.83 73.5684 96.27C72.3084 94.77 71.6784 92.91 71.6784 90.69C71.6784 89.31 71.9184 87.57 72.3984 85.47C72.8784 83.37 73.5384 81.18 74.3784 78.9C75.2784 76.56 76.2984 74.37 77.4384 72.33C78.5784 70.29 79.7784 68.64 81.0384 67.38C82.3584 66.06 83.6484 65.4 84.9084 65.4C85.5684 65.4 86.1384 65.61 86.6184 66.03C87.1584 66.45 87.4284 67.05 87.4284 67.83C87.4284 68.61 86.9484 69.78 85.9884 71.34C85.0884 72.9 84.0084 74.73 82.7484 76.83C81.4884 78.87 80.3784 81 79.4184 83.22C78.5184 85.44 78.0684 87.57 78.0684 89.61C78.0684 91.59 78.4284 92.91 79.1484 93.57C79.8684 94.23 80.9184 94.56 82.2984 94.56C84.3384 94.56 86.5284 93.54 88.8684 91.5C91.2684 89.46 93.7584 85.89 96.3384 80.79L97.5084 82.05C95.5284 87.33 92.8884 91.41 89.5884 94.29C86.3484 97.17 82.8984 98.61 79.2384 98.61ZM89.9484 57.75C88.8684 57.75 87.8784 57.48 86.9784 56.94C86.1384 56.4 85.7184 55.59 85.7184 54.51C85.7184 53.07 86.4684 51.87 87.9684 50.91C89.5284 49.89 91.1184 49.38 92.7384 49.38C93.7584 49.38 94.5984 49.62 95.2584 50.1C95.9184 50.58 96.2484 51.39 96.2484 52.53C96.2484 53.79 95.5884 54.99 94.2684 56.13C92.9484 57.21 91.5084 57.75 89.9484 57.75ZM103.373 100.59C100.433 100.59 98.0631 99.96 96.2631 98.7C94.5231 97.5 93.2931 95.97 92.5731 94.11C91.7931 92.25 91.4031 90.36 91.4031 88.44C91.4031 86.7 91.6431 85.35 92.1231 84.39C92.6031 83.43 93.2031 82.71 93.9231 82.23C94.6431 81.75 95.3031 81.39 95.9031 81.15C96.5631 80.91 97.0131 80.67 97.2531 80.43C98.8731 78.69 100.463 76.77 102.023 74.67C103.583 72.57 104.933 70.29 106.073 67.83V66.84C106.073 64.5 106.463 62.85 107.243 61.89C108.023 60.93 108.923 60.45 109.943 60.45C110.603 60.45 111.083 60.63 111.383 60.99C111.683 61.29 111.833 61.65 111.833 62.07C111.833 62.37 111.743 62.79 111.563 63.33C111.443 63.87 111.383 64.59 111.383 65.49C111.383 67.35 111.803 69.45 112.643 71.79C113.483 74.07 114.323 76.5 115.163 79.08C116.003 81.66 116.423 84.3 116.423 87C116.423 87.78 116.393 88.5 116.333 89.16C116.273 89.76 116.153 90.36 115.973 90.96C117.953 90.54 119.843 89.55 121.643 87.99C123.443 86.37 125.183 83.97 126.863 80.79L127.853 81.6C126.713 85.02 125.033 87.72 122.813 89.7C120.653 91.62 118.163 92.79 115.343 93.21C114.383 95.73 112.823 97.59 110.663 98.79C108.503 99.99 106.073 100.59 103.373 100.59ZM103.013 96.9C104.033 96.9 105.083 96.6 106.163 96C107.243 95.46 108.113 94.5 108.773 93.12C106.253 92.58 104.003 91.62 102.023 90.24C100.103 88.8 98.6031 87.33 97.5231 85.83C96.5631 86.01 96.0831 86.91 96.0831 88.53C96.0831 90.57 96.6531 92.49 97.7931 94.29C98.9931 96.03 100.733 96.9 103.013 96.9ZM109.403 90.78C109.523 90.3 109.583 89.76 109.583 89.16C109.643 88.56 109.673 88.02 109.673 87.54C109.613 84.78 109.253 82.08 108.593 79.44C107.933 76.74 107.303 74.04 106.703 71.34C105.503 73.38 104.153 75.48 102.653 77.64C101.213 79.74 99.8631 81.45 98.6031 82.77C99.5031 84.51 100.883 86.13 102.743 87.63C104.663 89.13 106.883 90.18 109.403 90.78ZM133.76 100.59C130.82 100.59 128.45 99.96 126.65 98.7C124.91 97.5 123.68 95.97 122.96 94.11C122.18 92.25 121.79 90.36 121.79 88.44C121.79 86.7 122.03 85.35 122.51 84.39C122.99 83.43 123.59 82.71 124.31 82.23C125.03 81.75 125.69 81.39 126.29 81.15C126.95 80.91 127.4 80.67 127.64 80.43C129.26 78.69 130.85 76.77 132.41 74.67C133.97 72.57 135.32 70.29 136.46 67.83V66.84C136.46 64.5 136.85 62.85 137.63 61.89C138.41 60.93 139.31 60.45 140.33 60.45C140.99 60.45 141.47 60.63 141.77 60.99C142.07 61.29 142.22 61.65 142.22 62.07C142.22 62.37 142.13 62.79 141.95 63.33C141.83 63.87 141.77 64.59 141.77 65.49C141.77 67.35 142.19 69.45 143.03 71.79C143.87 74.07 144.71 76.5 145.55 79.08C146.39 81.66 146.81 84.3 146.81 87C146.81 87.78 146.78 88.5 146.72 89.16C146.66 89.76 146.54 90.36 146.36 90.96C148.34 90.54 150.23 89.55 152.03 87.99C153.83 86.37 155.57 83.97 157.25 80.79L158.24 81.6C157.1 85.02 155.42 87.72 153.2 89.7C151.04 91.62 148.55 92.79 145.73 93.21C144.77 95.73 143.21 97.59 141.05 98.79C138.89 99.99 136.46 100.59 133.76 100.59ZM133.4 96.9C134.42 96.9 135.47 96.6 136.55 96C137.63 95.46 138.5 94.5 139.16 93.12C136.64 92.58 134.39 91.62 132.41 90.24C130.49 88.8 128.99 87.33 127.91 85.83C126.95 86.01 126.47 86.91 126.47 88.53C126.47 90.57 127.04 92.49 128.18 94.29C129.38 96.03 131.12 96.9 133.4 96.9ZM139.79 90.78C139.91 90.3 139.97 89.76 139.97 89.16C140.03 88.56 140.06 88.02 140.06 87.54C140 84.78 139.64 82.08 138.98 79.44C138.32 76.74 137.69 74.04 137.09 71.34C135.89 73.38 134.54 75.48 133.04 77.64C131.6 79.74 130.25 81.45 128.99 82.77C129.89 84.51 131.27 86.13 133.13 87.63C135.05 89.13 137.27 90.18 139.79 90.78ZM160.007 98.88C157.367 98.88 155.537 98.01 154.517 96.27C153.497 94.59 152.987 92.67 152.987 90.51C152.987 88.59 153.287 86.64 153.887 84.66C154.487 82.68 155.297 80.82 156.317 79.08C157.337 77.34 158.477 75.93 159.737 74.85C160.997 73.77 162.287 73.23 163.607 73.23C163.967 73.23 164.387 73.32 164.867 73.5C165.407 73.62 165.797 73.8 166.037 74.04C165.377 74.76 164.657 75.78 163.877 77.1C163.157 78.42 162.467 79.86 161.807 81.42C161.207 82.92 160.697 84.45 160.277 86.01C159.917 87.51 159.737 88.89 159.737 90.15C159.737 91.53 159.977 92.61 160.457 93.39C160.937 94.17 161.717 94.56 162.797 94.56C163.997 94.56 165.407 93.93 167.027 92.67C168.707 91.35 170.297 89.76 171.797 87.9C169.937 86.28 168.557 84.42 167.657 82.32C166.817 80.16 166.397 77.73 166.397 75.03C166.397 73.53 166.727 71.94 167.387 70.26C168.047 68.58 169.067 67.17 170.447 66.03C171.827 64.89 173.627 64.32 175.847 64.32C178.367 64.32 180.107 65.04 181.067 66.48C182.087 67.86 182.597 69.54 182.597 71.52C182.597 73.74 181.997 76.26 180.797 79.08C179.657 81.84 178.277 84.48 176.657 87C177.497 87.48 178.427 87.72 179.447 87.72C180.347 87.72 181.427 87.51 182.687 87.09C183.947 86.67 185.147 85.98 186.287 85.02C187.487 84 188.447 82.68 189.167 81.06L190.607 82.14C189.347 85.08 187.607 87.24 185.387 88.62C183.227 89.94 181.127 90.6 179.087 90.6C178.307 90.6 177.527 90.54 176.747 90.42C175.967 90.24 175.247 90 174.587 89.7C172.547 92.22 170.237 94.38 167.657 96.18C165.137 97.98 162.587 98.88 160.007 98.88ZM173.867 85.2C175.367 83.1 176.597 80.85 177.557 78.45C178.577 75.99 179.087 73.74 179.087 71.7C179.087 70.2 178.847 69.12 178.367 68.46C177.947 67.74 177.347 67.38 176.567 67.38C175.367 67.38 174.167 68.22 172.967 69.9C171.767 71.52 171.167 73.59 171.167 76.11C171.167 77.55 171.377 79.17 171.797 80.97C172.277 82.71 172.967 84.12 173.867 85.2ZM216.178 97.8C213.958 97.8 212.248 97.23 211.048 96.09C209.908 94.95 209.338 93.51 209.338 91.77C209.338 90.51 209.548 89.22 209.968 87.9C210.388 86.52 210.808 85.14 211.228 83.76C211.648 82.32 211.858 80.94 211.858 79.62C211.858 78.18 211.528 77.19 210.868 76.65C210.208 76.11 209.428 75.84 208.528 75.84C206.728 75.84 204.868 76.59 202.948 78.09C201.088 79.59 199.258 81.48 197.458 83.76C195.658 85.98 193.978 88.32 192.418 90.78C190.858 93.24 189.508 95.43 188.368 97.35C187.288 97.35 186.268 97.17 185.308 96.81C184.348 96.45 183.538 95.82 182.878 94.92C182.938 94.62 183.298 93.72 183.958 92.22C184.558 90.66 185.248 88.8 186.028 86.64C186.808 84.42 187.498 82.14 188.098 79.8C188.758 77.46 189.088 75.3 189.088 73.32C189.508 72.9 190.138 72.45 190.978 71.97C191.818 71.49 192.688 71.25 193.588 71.25C195.508 71.25 196.468 72.12 196.468 73.86C196.468 74.64 196.288 75.9 195.928 77.64C195.568 79.32 195.088 81.18 194.488 83.22C196.048 81 197.788 78.87 199.708 76.83C201.628 74.73 203.638 73.02 205.738 71.7C207.838 70.38 209.968 69.72 212.128 69.72C214.588 69.72 216.388 70.59 217.528 72.33C218.728 74.01 219.328 75.9 219.328 78C219.328 79.8 219.028 81.51 218.428 83.13C217.828 84.69 217.228 86.19 216.628 87.63C216.088 89.01 215.818 90.39 215.818 91.77C215.818 92.79 216.028 93.54 216.448 94.02C216.928 94.44 217.498 94.65 218.158 94.65C219.598 94.65 221.068 93.96 222.568 92.58C224.128 91.14 225.598 89.37 226.978 87.27C228.418 85.11 229.678 82.95 230.758 80.79L232.108 81.96C230.848 84.9 229.438 87.57 227.878 89.97C226.318 92.37 224.578 94.29 222.658 95.73C220.738 97.11 218.578 97.8 216.178 97.8Z" fill="white"/>
</svg>
